<?xml version="1.0" encoding="UTF-8" standalone="no" ?>
<!DOCTYPE svg PUBLIC "-//W3C//DTD SVG 1.1//EN" "http://www.w3.org/Graphics/SVG/1.1/DTD/svg11.dtd">
<svg xmlns="http://www.w3.org/2000/svg" xmlns:xlink="http://www.w3.org/1999/xlink" version="1.1" width="1280" height="1024" viewBox="0 0 1280 1024" xml:space="preserve">
<desc>Created with Fabric.js 4.4.0</desc>
<defs>
</defs>
<g transform="matrix(1 0 0 1 640 512)" id="background-logo"  >
<rect style="stroke: none; stroke-width: 0; stroke-dasharray: none; stroke-linecap: butt; stroke-dashoffset: 0; stroke-linejoin: miter; stroke-miterlimit: 4; fill: rgb(255,255,255); fill-rule: nonzero; opacity: 1;"  paint-order="stroke"  x="-640" y="-512" rx="0" ry="0" width="1280" height="1024" />
</g>
<g transform="matrix(1.9211538461538462 0 0 1.9211538461538462 647.4974096383532 724.728984200576)" id="text-logo-path-group"  >
<g style=""  paint-order="stroke"   >
		<g transform="matrix(1 0 0 1 0 0)" id="text-logo-path-0"  >
<path style="stroke: none; stroke-width: 0; stroke-dasharray: none; stroke-linecap: butt; stroke-dashoffset: 0; stroke-linejoin: miter; stroke-miterlimit: 4; fill: rgb(0,0,0); fill-rule: nonzero; opacity: 1;"  paint-order="stroke"  transform=" translate(-264.295, 26.83)" d="M 6.38 -14.51 L 6.38 -38.67 Q 6.38 -41.82 6.31 -44.18 Q 6.23 -46.54 6.09 -48.26 Q 5.94 -49.99 5.73 -51.14 Q 5.53 -52.29 5.31 -53.07 L 5.31 -53.07 L 5.31 -53.21 Q 6.05 -53.18 6.87 -53.18 L 6.87 -53.18 Q 7.57 -53.14 8.44 -53.14 Q 9.31 -53.14 10.24 -53.14 L 10.24 -53.14 Q 11.58 -53.14 13.86 -53.4 Q 16.14 -53.66 19.74 -53.66 L 19.74 -53.66 Q 23.08 -53.66 25.9 -52.79 Q 28.72 -51.92 30.78 -50.28 Q 32.84 -48.65 34.01 -46.26 Q 35.18 -43.86 35.18 -40.82 L 35.18 -40.82 Q 35.18 -38.26 34.47 -36.24 Q 33.77 -34.21 32.49 -32.71 Q 31.21 -31.21 29.41 -30.19 Q 27.61 -29.17 25.46 -28.57 L 25.46 -28.57 Q 28.61 -28.09 31.21 -26.96 Q 33.81 -25.83 35.68 -24.12 Q 37.55 -22.41 38.58 -20.13 Q 39.6 -17.85 39.6 -15.07 L 39.6 -15.07 Q 39.6 -7.24 34.44 -3.32 Q 29.28 0.59 19 0.59 L 19 0.59 Q 17.89 0.59 16.4 0.5 Q 14.92 0.41 13.38 0.3 Q 11.84 0.19 10.35 0.09 Q 8.87 0 7.76 0 L 7.76 0 L 5.31 0 L 5.31 -0.15 Q 5.53 -0.93 5.73 -2.08 Q 5.94 -3.23 6.09 -4.94 Q 6.23 -6.64 6.31 -9 Q 6.38 -11.36 6.38 -14.51 L 6.38 -14.51 Z M 20 -26.31 L 20 -26.31 Q 17.48 -26.31 15.77 -26.13 Q 14.06 -25.94 13.14 -25.75 L 13.14 -25.75 L 13.14 -14.51 Q 13.14 -10.17 13.29 -7.35 Q 13.43 -4.53 13.69 -2.75 L 13.69 -2.75 Q 15.1 -2.56 16.51 -2.41 Q 17.92 -2.26 18.78 -2.26 L 18.78 -2.26 Q 25.72 -2.26 28.93 -5.36 Q 32.14 -8.46 32.14 -14.88 L 32.14 -14.88 Q 32.14 -17.4 31.38 -19.5 Q 30.62 -21.6 29.11 -23.12 Q 27.61 -24.64 25.33 -25.48 Q 23.04 -26.31 20 -26.31 Z M 13.14 -50.39 L 13.14 -29.09 Q 14.18 -28.98 14.99 -28.96 Q 15.81 -28.95 16.74 -28.95 L 16.74 -28.95 Q 19.26 -28.95 21.34 -29.67 Q 23.42 -30.39 24.88 -31.84 Q 26.35 -33.29 27.16 -35.46 Q 27.98 -37.63 27.98 -40.52 L 27.98 -40.52 Q 27.98 -42.94 27.39 -44.9 Q 26.79 -46.87 25.62 -48.26 Q 24.46 -49.65 22.75 -50.39 Q 21.04 -51.14 18.85 -51.14 L 18.85 -51.14 Q 17.44 -51.14 16.38 -51.03 Q 15.33 -50.91 14.58 -50.77 L 14.58 -50.77 Q 13.73 -50.62 13.14 -50.39 L 13.14 -50.39 Z M 47.5 -39.89 L 47.5 -39.89 Q 51.14 -39.89 54.96 -39.91 Q 58.78 -39.93 62.05 -39.99 Q 65.31 -40.04 67.67 -40.12 Q 70.03 -40.19 70.77 -40.34 L 70.77 -40.34 L 69.32 -36.33 Q 68.32 -36.59 67.06 -36.81 L 67.06 -36.81 Q 65.94 -37 64.37 -37.17 Q 62.79 -37.33 60.71 -37.33 L 60.71 -37.33 Q 59.97 -37.33 59 -37.28 Q 58.04 -37.22 57.15 -37.15 L 57.15 -37.15 Q 56.11 -37.07 55.03 -37 L 55.03 -37 L 55.03 -22.34 Q 58.04 -22.38 60.45 -22.49 Q 62.86 -22.6 64.57 -22.79 L 64.57 -22.79 Q 66.57 -22.93 68.1 -23.19 L 68.1 -23.19 L 67.21 -18.78 Q 65.16 -19.04 63.09 -19.22 L 63.09 -19.22 Q 61.3 -19.41 59.15 -19.54 Q 57 -19.67 55.03 -19.67 L 55.03 -19.67 L 55.03 -2.82 Q 58.48 -2.82 61.38 -3.1 Q 64.27 -3.38 66.43 -3.71 L 66.43 -3.71 Q 68.95 -4.12 70.99 -4.64 L 70.99 -4.64 L 70.14 0.22 Q 69.58 0.19 68.34 0.13 Q 67.09 0.07 65.74 0.06 Q 64.38 0.04 63.2 0.02 Q 62.01 0 61.56 0 L 61.56 0 L 47.5 0 L 47.5 -0.15 Q 47.76 -0.93 47.96 -2.15 Q 48.17 -3.38 48.3 -5.18 Q 48.43 -6.98 48.5 -9.46 Q 48.58 -11.95 48.58 -15.29 L 48.58 -15.29 L 48.58 -24.64 Q 48.58 -27.98 48.5 -30.45 Q 48.43 -32.92 48.3 -34.72 Q 48.17 -36.52 47.96 -37.74 Q 47.76 -38.96 47.5 -39.74 L 47.5 -39.74 L 47.5 -39.89 Z M 86.8 -37.33 L 86.8 -19.37 Q 87.54 -19.26 88.3 -19.2 Q 89.06 -19.15 89.77 -19.15 L 89.77 -19.15 Q 94.41 -19.15 96.8 -21.63 Q 99.19 -24.12 99.19 -29.09 L 99.19 -29.09 Q 99.19 -33.18 97.28 -35.55 Q 95.37 -37.93 91.66 -37.93 L 91.66 -37.93 Q 90.47 -37.93 89.56 -37.83 Q 88.65 -37.74 88.02 -37.63 L 88.02 -37.63 Q 87.32 -37.48 86.8 -37.33 L 86.8 -37.33 Z M 100.31 -5.94 L 92.48 -16.96 Q 91.73 -16.85 91.01 -16.83 Q 90.29 -16.81 89.54 -16.81 L 89.54 -16.81 Q 88.95 -16.81 88.25 -16.85 Q 87.54 -16.88 86.8 -16.96 L 86.8 -16.96 L 86.8 -15.14 Q 86.8 -11.84 86.87 -9.37 Q 86.95 -6.9 87.08 -5.12 Q 87.21 -3.34 87.39 -2.13 Q 87.58 -0.93 87.84 -0.15 L 87.84 -0.15 L 87.84 0 L 79.27 0 L 79.27 -0.15 Q 79.53 -0.93 79.73 -2.15 Q 79.93 -3.38 80.06 -5.18 Q 80.19 -6.98 80.27 -9.46 Q 80.34 -11.95 80.34 -15.29 L 80.34 -15.29 L 80.34 -24.64 Q 80.34 -27.98 80.27 -30.45 Q 80.19 -32.92 80.06 -34.72 Q 79.93 -36.52 79.73 -37.74 Q 79.53 -38.96 79.27 -39.74 L 79.27 -39.74 L 79.27 -39.89 Q 79.86 -39.86 80.53 -39.82 L 80.53 -39.82 Q 81.08 -39.78 81.77 -39.76 Q 82.46 -39.74 83.16 -39.74 L 83.16 -39.74 Q 84.35 -39.74 86.69 -39.97 Q 89.03 -40.19 92.18 -40.19 L 92.18 -40.19 Q 95.37 -40.19 97.99 -39.41 Q 100.6 -38.63 102.48 -37.18 Q 104.35 -35.74 105.37 -33.66 Q 106.39 -31.58 106.39 -29.02 L 106.39 -29.02 Q 106.39 -27.02 105.84 -25.36 Q 105.28 -23.71 104.28 -22.4 Q 103.28 -21.08 101.9 -20.08 Q 100.53 -19.07 98.86 -18.33 L 98.86 -18.33 L 106.62 -7.38 Q 107.62 -6.05 108.64 -4.82 Q 109.66 -3.6 110.59 -2.63 Q 111.51 -1.67 112.33 -1.02 Q 113.15 -0.37 113.7 -0.15 L 113.7 -0.15 L 113.7 0 L 103.98 0 Q 103.98 -0.33 103.52 -1.17 Q 103.05 -2 102.44 -2.91 Q 101.83 -3.82 101.22 -4.68 Q 100.6 -5.53 100.31 -5.94 L 100.31 -5.94 Z M 117.19 -39.89 L 117.19 -39.89 Q 120.83 -39.89 124.65 -39.91 Q 128.47 -39.93 131.74 -39.99 Q 135 -40.04 137.36 -40.12 Q 139.72 -40.19 140.46 -40.34 L 140.46 -40.34 L 139.01 -36.33 Q 138.01 -36.59 136.75 -36.81 L 136.75 -36.81 Q 135.63 -37 134.06 -37.17 Q 132.48 -37.33 130.4 -37.33 L 130.4 -37.33 Q 129.66 -37.33 128.7 -37.28 Q 127.73 -37.22 126.84 -37.15 L 126.84 -37.15 Q 125.8 -37.07 124.72 -37 L 124.72 -37 L 124.72 -22.34 Q 127.73 -22.38 130.14 -22.49 Q 132.55 -22.6 134.26 -22.79 L 134.26 -22.79 Q 136.27 -22.93 137.79 -23.19 L 137.79 -23.19 L 136.9 -18.78 Q 134.86 -19.04 132.78 -19.22 L 132.78 -19.22 Q 131 -19.41 128.84 -19.54 Q 126.69 -19.67 124.72 -19.67 L 124.72 -19.67 L 124.72 -2.82 Q 128.18 -2.82 131.07 -3.1 Q 133.96 -3.38 136.12 -3.71 L 136.12 -3.71 Q 138.64 -4.12 140.68 -4.64 L 140.68 -4.64 L 139.83 0.22 Q 139.27 0.19 138.03 0.13 Q 136.79 0.07 135.43 0.06 Q 134.08 0.04 132.89 0.02 Q 131.7 0 131.26 0 L 131.26 0 L 117.19 0 L 117.19 -0.15 Q 117.45 -0.93 117.66 -2.15 Q 117.86 -3.38 117.99 -5.18 Q 118.12 -6.98 118.19 -9.46 Q 118.27 -11.95 118.27 -15.29 L 118.27 -15.29 L 118.27 -24.64 Q 118.27 -27.98 118.19 -30.45 Q 118.12 -32.92 117.99 -34.72 Q 117.86 -36.52 117.66 -37.74 Q 117.45 -38.96 117.19 -39.74 L 117.19 -39.74 L 117.19 -39.89 Z M 174.64 -9.57 L 173.19 -12.54 Q 172.19 -12.54 170.68 -12.54 Q 169.18 -12.54 167.4 -12.54 Q 165.62 -12.54 163.73 -12.54 Q 161.83 -12.54 160.13 -12.52 Q 158.42 -12.51 157.01 -12.49 Q 155.6 -12.47 154.82 -12.47 L 154.82 -12.47 L 153.45 -9.57 Q 152.56 -7.79 151.93 -6.48 Q 151.29 -5.16 150.89 -4.16 Q 150.48 -3.15 150.29 -2.43 Q 150.11 -1.71 150.11 -1.08 L 150.11 -1.08 Q 150.11 -0.67 150.14 -0.46 Q 150.18 -0.26 150.26 -0.15 L 150.26 -0.15 L 150.26 0 L 143.72 0 L 143.72 -0.15 Q 143.98 -0.41 144.54 -1.28 Q 145.1 -2.15 145.82 -3.41 Q 146.54 -4.68 147.38 -6.27 Q 148.21 -7.87 149.03 -9.57 L 149.03 -9.57 L 164.17 -40.82 L 166.96 -40.82 L 181.8 -9.57 Q 182.65 -7.79 183.52 -6.16 Q 184.4 -4.53 185.14 -3.25 Q 185.88 -1.97 186.44 -1.13 Q 186.99 -0.3 187.18 -0.15 L 187.18 -0.15 L 187.18 0 L 177.68 0 Q 177.75 -0.3 177.75 -0.54 Q 177.75 -0.78 177.75 -1.08 L 177.75 -1.08 Q 177.75 -1.89 177.4 -3.04 Q 177.05 -4.19 176.55 -5.4 Q 176.05 -6.61 175.51 -7.72 Q 174.97 -8.83 174.64 -9.57 L 174.64 -9.57 Z M 164.17 -31.91 L 156.27 -15.44 L 158.53 -15.44 Q 160.09 -15.44 161.85 -15.46 Q 163.62 -15.47 165.4 -15.47 Q 167.18 -15.47 168.85 -15.49 Q 170.52 -15.51 171.85 -15.51 L 171.85 -15.51 L 164.17 -31.91 Z M 261.88 0 L 251.71 0 L 251.71 -0.15 Q 251.79 -0.33 251.82 -0.71 Q 251.86 -1.08 251.86 -1.37 L 251.86 -1.37 Q 251.86 -2.52 251.55 -3.92 Q 251.23 -5.31 250.34 -7.38 L 250.34 -7.38 L 245.85 -17.48 Q 243.77 -17.55 240.32 -17.55 Q 236.87 -17.55 232.86 -17.55 L 232.86 -17.55 Q 229.93 -17.55 227.2 -17.55 Q 224.47 -17.55 222.29 -17.48 L 222.29 -17.48 L 218.02 -7.68 Q 217.46 -6.31 216.83 -4.68 Q 216.2 -3.04 216.2 -1.37 L 216.2 -1.37 Q 216.2 -0.89 216.27 -0.58 Q 216.35 -0.26 216.42 -0.15 L 216.42 -0.15 L 216.42 0 L 208.85 0 L 208.85 -0.15 Q 209.52 -0.85 210.52 -2.65 Q 211.52 -4.45 212.71 -7.16 L 212.71 -7.16 L 233.97 -54.33 L 236.94 -54.33 L 257.09 -8.98 Q 257.8 -7.38 258.56 -5.88 Q 259.32 -4.38 259.99 -3.19 Q 260.66 -2 261.18 -1.19 Q 261.7 -0.37 261.88 -0.15 L 261.88 -0.15 L 261.88 0 Z M 223.66 -20.74 L 227.67 -20.74 Q 229.82 -20.74 232.08 -20.76 Q 234.35 -20.78 236.52 -20.8 Q 238.69 -20.82 240.69 -20.84 Q 242.7 -20.86 244.33 -20.89 L 244.33 -20.89 L 233.9 -44.46 L 223.66 -20.74 Z M 299.06 -8.5 L 299.51 -8.28 L 296.62 -1.37 Q 295.54 -0.89 294.18 -0.5 Q 292.83 -0.11 291.38 0.15 Q 289.94 0.41 288.43 0.54 Q 286.93 0.67 285.59 0.67 L 285.59 0.67 Q 280.92 0.67 276.93 -0.71 Q 272.94 -2.08 270.04 -4.73 Q 267.15 -7.38 265.52 -11.24 Q 263.88 -15.1 263.88 -20.08 L 263.88 -20.08 Q 263.88 -24.46 265.59 -28.2 Q 267.3 -31.95 270.3 -34.72 Q 273.31 -37.48 277.41 -39.04 Q 281.51 -40.6 286.3 -40.6 L 286.3 -40.6 Q 287.38 -40.6 288.58 -40.5 Q 289.79 -40.41 290.97 -40.23 Q 292.16 -40.04 293.28 -39.8 Q 294.39 -39.56 295.35 -39.3 L 295.35 -39.3 L 298.14 -32.62 L 297.69 -32.36 Q 296.69 -33.58 295.3 -34.62 Q 293.91 -35.66 292.25 -36.39 Q 290.6 -37.11 288.79 -37.52 Q 286.97 -37.93 285.07 -37.93 L 285.07 -37.93 Q 281.99 -37.93 279.45 -36.85 Q 276.91 -35.77 275.11 -33.71 Q 273.31 -31.65 272.31 -28.69 Q 271.31 -25.72 271.31 -21.97 L 271.31 -21.97 Q 271.31 -17.74 272.27 -14.08 Q 273.24 -10.43 275.17 -7.74 Q 277.1 -5.05 279.99 -3.51 Q 282.88 -1.97 286.74 -1.97 L 286.74 -1.97 Q 288.6 -1.97 290.4 -2.43 Q 292.2 -2.89 293.81 -3.75 Q 295.43 -4.6 296.76 -5.81 Q 298.1 -7.01 299.06 -8.5 L 299.06 -8.5 Z M 331.94 -9.57 L 330.5 -12.54 Q 329.49 -12.54 327.99 -12.54 Q 326.49 -12.54 324.71 -12.54 Q 322.93 -12.54 321.03 -12.54 Q 319.14 -12.54 317.43 -12.52 Q 315.73 -12.51 314.32 -12.49 Q 312.91 -12.47 312.13 -12.47 L 312.13 -12.47 L 310.75 -9.57 Q 309.86 -7.79 309.23 -6.48 Q 308.6 -5.16 308.19 -4.16 Q 307.79 -3.15 307.6 -2.43 Q 307.41 -1.71 307.41 -1.08 L 307.41 -1.08 Q 307.41 -0.67 307.45 -0.46 Q 307.49 -0.26 307.56 -0.15 L 307.56 -0.15 L 307.56 0 L 301.03 0 L 301.03 -0.15 Q 301.29 -0.41 301.85 -1.28 Q 302.4 -2.15 303.13 -3.41 Q 303.85 -4.68 304.69 -6.27 Q 305.52 -7.87 306.34 -9.57 L 306.34 -9.57 L 321.48 -40.82 L 324.26 -40.82 L 339.11 -9.57 Q 339.96 -7.79 340.83 -6.16 Q 341.7 -4.53 342.45 -3.25 Q 343.19 -1.97 343.74 -1.13 Q 344.3 -0.3 344.49 -0.15 L 344.49 -0.15 L 344.49 0 L 334.99 0 Q 335.06 -0.3 335.06 -0.54 Q 335.06 -0.78 335.06 -1.08 L 335.06 -1.08 Q 335.06 -1.89 334.71 -3.04 Q 334.36 -4.19 333.85 -5.4 Q 333.35 -6.61 332.82 -7.72 Q 332.28 -8.83 331.94 -9.57 L 331.94 -9.57 Z M 321.48 -31.91 L 313.57 -15.44 L 315.84 -15.44 Q 317.4 -15.44 319.16 -15.46 Q 320.92 -15.47 322.7 -15.47 Q 324.48 -15.47 326.15 -15.49 Q 327.82 -15.51 329.16 -15.51 L 329.16 -15.51 L 321.48 -31.91 Z M 356.66 -37.26 L 356.66 -37.26 Q 356.62 -34.21 356.58 -31.36 L 356.58 -31.36 Q 356.58 -30.13 356.57 -28.85 Q 356.55 -27.57 356.53 -26.31 Q 356.51 -25.05 356.51 -23.92 Q 356.51 -22.79 356.51 -21.89 L 356.51 -21.89 Q 356.51 -20.04 356.53 -17.42 Q 356.55 -14.81 356.58 -12.06 Q 356.62 -9.31 356.7 -6.77 Q 356.77 -4.23 356.88 -2.52 L 356.88 -2.52 Q 357.25 -2.45 357.85 -2.39 Q 358.44 -2.34 359.09 -2.28 Q 359.74 -2.23 360.37 -2.21 Q 361 -2.19 361.45 -2.19 L 361.45 -2.19 Q 363.49 -2.19 365.58 -2.45 Q 367.68 -2.71 369.63 -3.43 Q 371.58 -4.16 373.28 -5.42 Q 374.99 -6.68 376.27 -8.67 Q 377.55 -10.65 378.27 -13.45 Q 379 -16.25 379 -20.08 L 379 -20.08 Q 379 -28.5 374.97 -33.06 Q 370.95 -37.63 362.97 -37.63 L 362.97 -37.63 Q 362.19 -37.63 361.32 -37.59 Q 360.44 -37.55 359.59 -37.5 Q 358.74 -37.44 357.98 -37.37 Q 357.21 -37.29 356.66 -37.26 Z M 348.98 -39.82 L 348.98 -39.97 Q 349.87 -39.93 350.65 -39.93 L 350.65 -39.93 Q 351.31 -39.89 351.95 -39.89 Q 352.58 -39.89 352.87 -39.89 L 352.87 -39.89 Q 353.39 -39.89 354.73 -39.93 Q 356.06 -39.97 357.75 -40.02 Q 359.44 -40.08 361.32 -40.13 Q 363.19 -40.19 364.79 -40.19 L 364.79 -40.19 Q 369.13 -40.19 373.06 -39.19 Q 376.99 -38.19 379.98 -35.9 Q 382.97 -33.62 384.71 -29.93 Q 386.46 -26.24 386.46 -20.82 L 386.46 -20.82 Q 386.46 -14.99 384.45 -10.95 Q 382.45 -6.9 379.04 -4.36 Q 375.62 -1.82 371.11 -0.69 Q 366.6 0.45 361.59 0.45 L 361.59 0.45 Q 360.41 0.45 358.63 0.37 Q 356.84 0.3 354.99 0.22 Q 353.13 0.15 351.48 0.07 Q 349.83 0 348.98 0 L 348.98 0 L 348.98 -0.15 Q 349.24 -0.93 349.44 -2.15 Q 349.64 -3.38 349.77 -5.18 Q 349.9 -6.98 349.98 -9.46 Q 350.05 -11.95 350.05 -15.29 L 350.05 -15.29 L 350.05 -24.64 Q 350.05 -27.98 349.98 -30.47 Q 349.9 -32.95 349.77 -34.77 Q 349.64 -36.59 349.44 -37.81 Q 349.24 -39.04 348.98 -39.82 L 348.98 -39.82 Z M 394.29 -39.89 L 394.29 -39.89 Q 397.92 -39.89 401.75 -39.91 Q 405.57 -39.93 408.83 -39.99 Q 412.1 -40.04 414.46 -40.12 Q 416.81 -40.19 417.55 -40.34 L 417.55 -40.34 L 416.11 -36.33 Q 415.11 -36.59 413.84 -36.81 L 413.84 -36.81 Q 412.73 -37 411.15 -37.17 Q 409.58 -37.33 407.5 -37.33 L 407.5 -37.33 Q 406.76 -37.33 405.79 -37.28 Q 404.83 -37.22 403.94 -37.15 L 403.94 -37.15 Q 402.9 -37.07 401.82 -37 L 401.82 -37 L 401.82 -22.34 Q 404.83 -22.38 407.24 -22.49 Q 409.65 -22.6 411.36 -22.79 L 411.36 -22.79 Q 413.36 -22.93 414.88 -23.19 L 414.88 -23.19 L 413.99 -18.78 Q 411.95 -19.04 409.87 -19.22 L 409.87 -19.22 Q 408.09 -19.41 405.94 -19.54 Q 403.79 -19.67 401.82 -19.67 L 401.82 -19.67 L 401.82 -2.82 Q 405.27 -2.82 408.17 -3.1 Q 411.06 -3.38 413.21 -3.71 L 413.21 -3.71 Q 415.74 -4.12 417.78 -4.64 L 417.78 -4.64 L 416.92 0.22 Q 416.37 0.19 415.12 0.13 Q 413.88 0.07 412.53 0.06 Q 411.17 0.04 409.98 0.02 Q 408.8 0 408.35 0 L 408.35 0 L 394.29 0 L 394.29 -0.15 Q 394.55 -0.93 394.75 -2.15 Q 394.96 -3.38 395.08 -5.18 Q 395.21 -6.98 395.29 -9.46 Q 395.36 -11.95 395.36 -15.29 L 395.36 -15.29 L 395.36 -24.64 Q 395.36 -27.98 395.29 -30.45 Q 395.21 -32.92 395.08 -34.72 Q 394.96 -36.52 394.75 -37.74 Q 394.55 -38.96 394.29 -39.74 L 394.29 -39.74 L 394.29 -39.89 Z M 423.46 0 L 423.46 -0.15 Q 423.94 -0.67 424.44 -2.04 Q 424.94 -3.41 425.24 -5.01 L 425.24 -5.01 Q 425.68 -7.61 426.22 -10.93 Q 426.76 -14.25 427.3 -17.78 Q 427.83 -21.3 428.35 -24.81 Q 428.87 -28.31 429.32 -31.32 Q 429.76 -34.33 430.06 -36.59 Q 430.36 -38.85 430.47 -39.89 L 430.47 -39.89 L 434.88 -39.89 L 452.59 -8.2 L 470.73 -39.89 L 474.33 -39.89 L 478.79 -8.91 Q 479.12 -6.79 479.43 -5.31 Q 479.75 -3.82 480.05 -2.8 Q 480.34 -1.78 480.64 -1.15 Q 480.94 -0.52 481.16 -0.15 L 481.16 -0.15 L 481.16 0 L 472.03 0 L 472.03 -0.15 Q 472.14 -0.45 472.31 -1.15 Q 472.48 -1.86 472.48 -2.82 L 472.48 -2.82 Q 472.48 -3.45 472.38 -4.64 Q 472.29 -5.83 472.11 -6.98 L 472.11 -6.98 L 468.91 -29.72 L 452.03 -0.07 L 449.39 -0.45 L 432.81 -29.95 Q 431.88 -23.71 431.17 -18.41 L 431.17 -18.41 Q 430.88 -16.14 430.58 -13.88 Q 430.28 -11.62 430.06 -9.63 Q 429.84 -7.64 429.69 -6.12 Q 429.54 -4.6 429.54 -3.86 L 429.54 -3.86 Q 429.54 -2.93 429.58 -2.25 Q 429.62 -1.56 429.69 -1.04 L 429.69 -1.04 Q 429.76 -0.45 429.84 0 L 429.84 0 L 423.46 0 Z M 506.54 -18.41 L 506.54 -15.29 Q 506.54 -11.95 506.62 -9.46 Q 506.69 -6.98 506.82 -5.18 Q 506.95 -3.38 507.16 -2.15 Q 507.36 -0.93 507.62 -0.15 L 507.62 -0.15 L 507.62 0 L 499.01 0 L 499.01 -0.15 Q 499.27 -0.93 499.47 -2.15 Q 499.68 -3.38 499.81 -5.18 Q 499.94 -6.98 500.01 -9.46 Q 500.09 -11.95 500.09 -15.29 L 500.09 -15.29 L 500.09 -17.85 L 486.73 -35.48 Q 485.39 -37.26 484.17 -38.35 Q 482.94 -39.45 482.31 -39.74 L 482.31 -39.74 L 482.31 -39.89 L 492.85 -39.89 Q 492.85 -39.22 493.33 -37.83 Q 493.81 -36.44 495.3 -34.44 L 495.3 -34.44 L 504.72 -21.97 L 514.37 -34.96 Q 515.41 -36.37 515.95 -37.74 Q 516.49 -39.11 516.49 -39.89 L 516.49 -39.89 L 523.28 -39.89 L 523.28 -39.74 Q 522.35 -39.11 521.37 -38.15 Q 520.38 -37.18 519.09 -35.4 L 519.09 -35.4 L 506.54 -18.41 Z" stroke-linecap="round" />
</g>
</g>
</g>
<g transform="matrix(1.9211538461538462 0 0 1.9211538461538462 641.4590204781969 833.7866860315944)" id="tagline-0a0b092e-b00e-4710-a722-306d6343c6cf-logo-path-group"  >
<g style=""  paint-order="stroke"   >
		<g transform="matrix(1 0 0 1 0 0)" id="tagline-0a0b092e-b00e-4710-a722-306d6343c6cf-logo-path-0"  >
<path style="stroke: none; stroke-width: 0; stroke-dasharray: none; stroke-linecap: butt; stroke-dashoffset: 0; stroke-linejoin: miter; stroke-miterlimit: 4; fill: rgb(0,0,0); fill-rule: nonzero; opacity: 1;"  paint-order="stroke"  transform=" translate(-114.36000000000001, 16.044999999999998)" d="M 16.8 -31.29 L 16.64 -27.09 L 16.15 -27.09 Q 15.97 -27.6 15.58 -28.26 Q 15.18 -28.91 14.54 -29.48 Q 13.9 -30.05 12.99 -30.43 Q 12.08 -30.82 10.85 -30.82 L 10.85 -30.82 Q 9.75 -30.82 8.89 -30.48 Q 8.04 -30.14 7.47 -29.54 Q 6.9 -28.93 6.6 -28.1 Q 6.31 -27.27 6.31 -26.26 L 6.31 -26.26 Q 6.31 -24.64 7.22 -23.17 Q 8.13 -21.7 9.5 -20.26 Q 10.87 -18.82 12.47 -17.38 Q 14.06 -15.95 15.43 -14.4 Q 16.8 -12.85 17.71 -11.15 Q 18.62 -9.46 18.62 -7.5 L 18.62 -7.5 Q 18.62 -6.04 18.11 -4.57 Q 17.61 -3.1 16.55 -1.93 Q 15.5 -0.76 13.84 -0.03 Q 12.17 0.7 9.88 0.7 L 9.88 0.7 Q 8.6 0.7 7.45 0.46 Q 6.29 0.22 5.31 -0.12 Q 4.33 -0.47 3.56 -0.88 Q 2.79 -1.28 2.29 -1.62 L 2.29 -1.62 L 2.81 -6.58 L 3.37 -6.58 Q 3.62 -5.53 4.18 -4.57 Q 4.74 -3.62 5.56 -2.89 Q 6.38 -2.16 7.43 -1.72 Q 8.49 -1.28 9.75 -1.28 L 9.75 -1.28 Q 10.89 -1.28 11.8 -1.63 Q 12.71 -1.98 13.36 -2.59 Q 14.02 -3.21 14.36 -4.07 Q 14.71 -4.92 14.71 -5.93 L 14.71 -5.93 Q 14.71 -7.34 14.2 -8.55 Q 13.68 -9.75 12.84 -10.83 Q 11.99 -11.9 10.93 -12.92 Q 9.86 -13.93 8.74 -14.95 Q 7.61 -15.97 6.55 -17.05 Q 5.48 -18.13 4.64 -19.35 Q 3.8 -20.57 3.28 -21.98 Q 2.76 -23.38 2.76 -25.07 L 2.76 -25.07 Q 2.76 -26.84 3.45 -28.27 Q 4.13 -29.69 5.27 -30.7 Q 6.4 -31.71 7.84 -32.25 Q 9.28 -32.79 10.8 -32.79 L 10.8 -32.79 Q 11.93 -32.79 12.87 -32.61 Q 13.81 -32.43 14.57 -32.19 Q 15.32 -31.94 15.88 -31.69 Q 16.44 -31.45 16.8 -31.29 L 16.8 -31.29 Z M 39.19 -5.79 L 38.32 -7.59 Q 37.71 -7.59 36.8 -7.59 Q 35.89 -7.59 34.81 -7.59 Q 33.74 -7.59 32.59 -7.59 Q 31.45 -7.59 30.41 -7.58 Q 29.38 -7.57 28.53 -7.56 Q 27.67 -7.55 27.2 -7.55 L 27.2 -7.55 L 26.37 -5.79 Q 25.83 -4.72 25.45 -3.92 Q 25.07 -3.12 24.82 -2.52 Q 24.57 -1.91 24.46 -1.47 Q 24.35 -1.03 24.35 -0.65 L 24.35 -0.65 Q 24.35 -0.4 24.37 -0.28 Q 24.39 -0.16 24.44 -0.09 L 24.44 -0.09 L 24.44 0 L 20.48 0 L 20.48 -0.09 Q 20.64 -0.25 20.98 -0.77 Q 21.32 -1.3 21.75 -2.07 Q 22.19 -2.83 22.7 -3.8 Q 23.2 -4.76 23.7 -5.79 L 23.7 -5.79 L 32.86 -24.71 L 34.54 -24.71 L 43.53 -5.79 Q 44.05 -4.72 44.57 -3.73 Q 45.1 -2.74 45.55 -1.97 Q 46 -1.19 46.34 -0.69 Q 46.67 -0.18 46.79 -0.09 L 46.79 -0.09 L 46.79 0 L 41.04 0 Q 41.08 -0.18 41.08 -0.33 Q 41.08 -0.47 41.08 -0.65 L 41.08 -0.65 Q 41.08 -1.15 40.87 -1.84 Q 40.65 -2.54 40.35 -3.27 Q 40.05 -4 39.72 -4.67 Q 39.4 -5.35 39.19 -5.79 L 39.19 -5.79 Z M 32.86 -19.32 L 28.08 -9.34 L 29.45 -9.34 Q 30.39 -9.34 31.46 -9.35 Q 32.52 -9.37 33.6 -9.37 Q 34.68 -9.37 35.69 -9.38 Q 36.7 -9.39 37.51 -9.39 L 37.51 -9.39 L 32.86 -19.32 Z M 50.33 -9.25 L 50.33 -14.91 Q 50.33 -16.94 50.29 -18.43 Q 50.25 -19.92 50.17 -21.01 Q 50.09 -22.1 49.96 -22.84 Q 49.84 -23.58 49.68 -24.06 L 49.68 -24.06 L 49.68 -24.15 L 54.89 -24.15 L 54.89 -24.06 Q 54.74 -23.58 54.61 -22.84 Q 54.49 -22.1 54.41 -21.01 Q 54.33 -19.92 54.29 -18.43 Q 54.24 -16.94 54.24 -14.91 L 54.24 -14.91 L 54.24 -9.25 Q 54.24 -7.23 54.29 -5.73 Q 54.33 -4.22 54.41 -3.13 Q 54.49 -2.04 54.61 -1.3 Q 54.74 -0.56 54.89 -0.09 L 54.89 -0.09 L 54.89 0 L 49.68 0 L 49.68 -0.09 Q 49.84 -0.56 49.96 -1.3 Q 50.09 -2.04 50.17 -3.13 Q 50.25 -4.22 50.29 -5.73 Q 50.33 -7.23 50.33 -9.25 L 50.33 -9.25 Z M 82.72 -14.91 L 82.72 0.31 L 81.85 0.31 L 63.99 -17.25 L 63.99 -9.25 Q 63.99 -7.23 64.01 -5.73 Q 64.04 -4.22 64.09 -3.13 Q 64.15 -2.04 64.25 -1.3 Q 64.35 -0.56 64.51 -0.09 L 64.51 -0.09 L 64.51 0 L 61.14 0 L 61.14 -0.09 Q 61.3 -0.56 61.41 -1.3 Q 61.52 -2.04 61.59 -3.13 Q 61.66 -4.22 61.68 -5.73 Q 61.7 -7.23 61.7 -9.25 L 61.7 -9.25 L 61.7 -14.91 Q 61.7 -16.94 61.68 -18.43 Q 61.66 -19.92 61.59 -21.01 Q 61.52 -22.1 61.41 -22.84 Q 61.3 -23.58 61.14 -24.06 L 61.14 -24.06 L 61.14 -24.15 L 62.53 -24.15 L 80.41 -6.49 L 80.41 -14.91 Q 80.41 -16.94 80.39 -18.43 Q 80.37 -19.92 80.31 -21.01 Q 80.25 -22.1 80.16 -22.84 Q 80.07 -23.58 79.92 -24.06 L 79.92 -24.06 L 79.92 -24.15 L 83.26 -24.15 L 83.26 -24.06 Q 83.11 -23.58 83 -22.84 Q 82.9 -22.1 82.84 -21.01 Q 82.77 -19.92 82.75 -18.43 Q 82.72 -16.94 82.72 -14.91 L 82.72 -14.91 Z M 95.32 -9.25 L 95.32 -22.48 Q 93.28 -22.48 91.61 -22.3 Q 89.93 -22.12 88.72 -21.92 L 88.72 -21.92 Q 87.33 -21.67 86.21 -21.38 L 86.21 -21.38 L 86.65 -24.28 Q 86.99 -24.24 87.75 -24.21 Q 88.52 -24.19 89.36 -24.18 Q 90.2 -24.17 90.96 -24.16 Q 91.71 -24.15 92 -24.15 L 92 -24.15 L 102.62 -24.15 Q 102.89 -24.15 103.62 -24.16 Q 104.35 -24.17 105.18 -24.18 Q 106.02 -24.19 106.78 -24.21 Q 107.54 -24.24 107.88 -24.28 L 107.88 -24.28 L 108.33 -21.38 Q 107.25 -21.67 105.86 -21.92 L 105.86 -21.92 Q 104.67 -22.12 102.99 -22.3 Q 101.32 -22.48 99.23 -22.48 L 99.23 -22.48 L 99.23 -9.25 Q 99.23 -7.23 99.28 -5.73 Q 99.32 -4.22 99.4 -3.13 Q 99.48 -2.04 99.59 -1.3 Q 99.7 -0.56 99.86 -0.09 L 99.86 -0.09 L 99.86 0 L 94.67 0 L 94.67 -0.09 Q 94.83 -0.56 94.94 -1.3 Q 95.05 -2.04 95.14 -3.13 Q 95.23 -4.22 95.28 -5.73 Q 95.32 -7.23 95.32 -9.25 L 95.32 -9.25 Z M 130.07 -23.4 L 130.07 -1.98 Q 132.72 -1.98 134.95 -2.2 Q 137.17 -2.43 138.83 -2.72 L 138.83 -2.72 Q 140.76 -3.03 142.36 -3.46 L 142.36 -3.46 L 141.71 0.18 Q 141.44 0.16 140.9 0.13 Q 140.36 0.11 139.7 0.09 Q 139.03 0.07 138.3 0.06 Q 137.57 0.04 136.92 0.03 Q 136.27 0.02 135.77 0.01 Q 135.26 0 135.04 0 L 135.04 0 L 125.33 0 L 125.33 -0.09 Q 125.47 -0.56 125.59 -1.26 Q 125.71 -1.95 125.8 -2.99 Q 125.89 -4.02 125.94 -5.45 Q 125.98 -6.87 125.98 -8.78 L 125.98 -8.78 L 125.98 -23.4 Q 125.98 -25.31 125.94 -26.74 Q 125.89 -28.17 125.8 -29.21 Q 125.71 -30.25 125.59 -30.95 Q 125.47 -31.65 125.33 -32.12 L 125.33 -32.12 L 125.33 -32.21 L 130.72 -32.21 L 130.72 -32.12 Q 130.59 -31.65 130.46 -30.95 Q 130.34 -30.25 130.26 -29.21 Q 130.18 -28.17 130.13 -26.74 Q 130.07 -25.31 130.07 -23.4 L 130.07 -23.4 Z M 144.94 -12.15 L 144.94 -12.15 Q 144.94 -14.8 145.94 -17.07 Q 146.94 -19.34 148.67 -21.01 Q 150.4 -22.69 152.76 -23.63 Q 155.12 -24.57 157.81 -24.57 L 157.81 -24.57 Q 160.46 -24.57 162.81 -23.69 Q 165.16 -22.8 166.9 -21.16 Q 168.64 -19.52 169.65 -17.18 Q 170.66 -14.85 170.66 -11.95 L 170.66 -11.95 Q 170.66 -9.55 169.8 -7.31 Q 168.95 -5.08 167.31 -3.36 Q 165.67 -1.64 163.27 -0.62 Q 160.87 0.4 157.77 0.4 L 157.77 0.4 Q 155.14 0.4 152.8 -0.47 Q 150.47 -1.35 148.71 -2.98 Q 146.96 -4.6 145.95 -6.93 Q 144.94 -9.25 144.94 -12.15 Z M 158.33 -1.19 L 158.33 -1.19 Q 160.03 -1.19 161.47 -1.86 Q 162.91 -2.54 163.95 -3.8 Q 165 -5.05 165.57 -6.86 Q 166.14 -8.67 166.14 -10.94 L 166.14 -10.94 Q 166.14 -13.52 165.59 -15.72 Q 165.04 -17.92 163.93 -19.53 Q 162.82 -21.14 161.16 -22.05 Q 159.5 -22.96 157.27 -22.96 L 157.27 -22.96 Q 155.56 -22.96 154.13 -22.3 Q 152.69 -21.65 151.65 -20.42 Q 150.6 -19.18 150.02 -17.38 Q 149.43 -15.59 149.43 -13.3 L 149.43 -13.3 Q 149.43 -10.74 150.01 -8.52 Q 150.58 -6.31 151.69 -4.68 Q 152.8 -3.05 154.46 -2.12 Q 156.13 -1.19 158.33 -1.19 Z M 193.73 -8.29 L 193.73 -15 Q 193.73 -17 193.7 -18.49 Q 193.68 -19.97 193.61 -21.05 Q 193.55 -22.12 193.46 -22.85 Q 193.37 -23.58 193.23 -24.06 L 193.23 -24.06 L 193.23 -24.15 L 196.53 -24.15 L 196.53 -24.06 Q 196.4 -23.58 196.31 -22.84 Q 196.22 -22.1 196.15 -21.01 Q 196.08 -19.92 196.06 -18.43 Q 196.04 -16.94 196.04 -14.91 L 196.04 -14.91 L 196.04 -8.47 Q 196.04 -6.04 195.29 -4.33 Q 194.53 -2.63 193.21 -1.54 Q 191.88 -0.45 190.05 0.06 Q 188.22 0.56 186.04 0.56 L 186.04 0.56 Q 183.84 0.56 181.96 0.08 Q 180.07 -0.4 178.69 -1.46 Q 177.31 -2.52 176.51 -4.2 Q 175.71 -5.88 175.71 -8.29 L 175.71 -8.29 L 175.71 -14.91 Q 175.71 -16.94 175.67 -18.43 Q 175.62 -19.92 175.53 -21.01 Q 175.44 -22.1 175.33 -22.84 Q 175.22 -23.58 175.06 -24.06 L 175.06 -24.06 L 175.06 -24.15 L 180.25 -24.15 L 180.25 -24.06 Q 180.09 -23.58 179.98 -22.85 Q 179.87 -22.12 179.79 -21.05 Q 179.71 -19.97 179.67 -18.49 Q 179.62 -17 179.62 -15 L 179.62 -15 L 179.62 -8.29 Q 179.62 -6.29 180.23 -5 Q 180.83 -3.71 181.82 -2.94 Q 182.81 -2.18 184.07 -1.88 Q 185.33 -1.57 186.65 -1.57 L 186.65 -1.57 Q 188 -1.57 189.27 -1.88 Q 190.54 -2.18 191.54 -2.94 Q 192.54 -3.71 193.13 -5 Q 193.73 -6.29 193.73 -8.29 L 193.73 -8.29 Z M 203.2 -9.25 L 203.2 -14.91 Q 203.2 -16.94 203.16 -18.43 Q 203.11 -19.92 203.04 -21.01 Q 202.96 -22.1 202.83 -22.84 Q 202.71 -23.58 202.55 -24.06 L 202.55 -24.06 L 202.55 -24.15 L 207.76 -24.15 L 207.76 -24.06 Q 207.61 -23.58 207.48 -22.84 Q 207.36 -22.1 207.28 -21.01 Q 207.2 -19.92 207.16 -18.43 Q 207.11 -16.94 207.11 -14.91 L 207.11 -14.91 L 207.11 -9.25 Q 207.11 -7.23 207.16 -5.73 Q 207.2 -4.22 207.28 -3.13 Q 207.36 -2.04 207.48 -1.3 Q 207.61 -0.56 207.76 -0.09 L 207.76 -0.09 L 207.76 0 L 202.55 0 L 202.55 -0.09 Q 202.71 -0.56 202.83 -1.3 Q 202.96 -2.04 203.04 -3.13 Q 203.11 -4.22 203.16 -5.73 Q 203.2 -7.23 203.2 -9.25 L 203.2 -9.25 Z M 225.06 -23.27 L 224.95 -19.45 L 224.5 -19.45 Q 224.36 -19.83 224.06 -20.42 Q 223.76 -21 223.25 -21.56 Q 222.75 -22.12 222 -22.52 Q 221.26 -22.91 220.23 -22.91 L 220.23 -22.91 Q 219.44 -22.91 218.83 -22.65 Q 218.21 -22.39 217.78 -21.94 Q 217.35 -21.5 217.13 -20.88 Q 216.91 -20.26 216.91 -19.54 L 216.91 -19.54 Q 216.91 -18.37 217.61 -17.32 Q 218.32 -16.26 219.38 -15.22 Q 220.43 -14.17 221.67 -13.12 Q 222.9 -12.06 223.96 -10.92 Q 225.01 -9.77 225.72 -8.49 Q 226.43 -7.21 226.43 -5.75 L 226.43 -5.75 Q 226.43 -4.67 226.04 -3.53 Q 225.64 -2.38 224.77 -1.46 Q 223.89 -0.54 222.52 0.06 Q 221.15 0.65 219.2 0.65 L 219.2 0.65 Q 218.12 0.65 217.14 0.47 Q 216.16 0.29 215.34 0.03 Q 214.52 -0.22 213.88 -0.53 Q 213.24 -0.83 212.82 -1.1 L 212.82 -1.1 L 213.22 -5.35 L 213.69 -5.35 Q 213.92 -4.56 214.36 -3.77 Q 214.79 -2.99 215.43 -2.35 Q 216.07 -1.71 216.94 -1.31 Q 217.8 -0.92 218.93 -0.92 L 218.93 -0.92 Q 219.71 -0.92 220.41 -1.18 Q 221.11 -1.44 221.61 -1.91 Q 222.12 -2.38 222.41 -3.07 Q 222.7 -3.75 222.7 -4.6 L 222.7 -4.6 Q 222.7 -5.62 222.3 -6.48 Q 221.89 -7.34 221.22 -8.14 Q 220.54 -8.94 219.7 -9.68 Q 218.86 -10.42 217.96 -11.19 Q 217.06 -11.95 216.22 -12.75 Q 215.38 -13.54 214.7 -14.46 Q 214.03 -15.39 213.63 -16.43 Q 213.22 -17.47 213.22 -18.73 L 213.22 -18.73 Q 213.22 -20.06 213.78 -21.11 Q 214.34 -22.17 215.27 -22.9 Q 216.19 -23.63 217.38 -24.02 Q 218.57 -24.42 219.85 -24.42 L 219.85 -24.42 Q 220.79 -24.42 221.61 -24.28 Q 222.43 -24.15 223.09 -23.95 Q 223.76 -23.76 224.25 -23.57 Q 224.74 -23.38 225.06 -23.27 L 225.06 -23.27 Z" stroke-linecap="round" />
</g>
</g>
</g>
<g transform="matrix(1.9119347221152907 0 0 1.9119347221152911 640.9213600590261 360.11414744010085)" id="logo-logo"  >
<g style=""  paint-order="stroke"   >
		<g transform="matrix(0.5690268481908329 0 0 -0.5690268481908329 79.76049331090911 58.86298231110081)"  >
<path style="stroke: none; stroke-width: 1; stroke-dasharray: none; stroke-linecap: butt; stroke-dashoffset: 0; stroke-linejoin: miter; stroke-miterlimit: 4; fill: rgb(0,0,0); fill-rule: evenodd; opacity: 1;"  paint-order="stroke"  transform=" translate(-3116.5550000000003, -4573.719999999999)" d="M 2980.76 4447.07 C 3040.1800000000003 4513.9 3131.2900000000004 4539.799999999999 3252.3500000000004 4527.009999999999 L 3139.6700000000005 4700.369999999999 L 3121.3700000000003 4700.369999999999 L 3202.2700000000004 4562.639999999999 C 3086.5000000000005 4556.879999999999 3014.3400000000006 4517.039999999999 2980.76 4447.07" stroke-linecap="round" />
</g>
		<g transform="matrix(0.5690268481908329 0 0 -0.5690268481908329 -79.76618357939111 58.86298231110081)"  >
<path style="stroke: none; stroke-width: 1; stroke-dasharray: none; stroke-linecap: butt; stroke-dashoffset: 0; stroke-linejoin: miter; stroke-miterlimit: 4; fill: rgb(0,0,0); fill-rule: evenodd; opacity: 1;"  paint-order="stroke"  transform=" translate(-2836.205, -4573.719999999999)" d="M 2972 4447.07 C 2912.58 4513.9 2821.47 4539.799999999999 2700.41 4527.009999999999 L 2813.0899999999997 4700.369999999999 L 2831.39 4700.369999999999 L 2750.49 4562.639999999999 C 2866.2599999999998 4556.879999999999 2938.4199999999996 4517.039999999999 2972 4447.07" stroke-linecap="round" />
</g>
		<g transform="matrix(0.5690268481908329 0 0 -0.5690268481908329 -0.002845134241113101 36.40633774724935)"  >
<path style="stroke: none; stroke-width: 1; stroke-dasharray: none; stroke-linecap: butt; stroke-dashoffset: 0; stroke-linejoin: miter; stroke-miterlimit: 4; fill: rgb(98,161,248); fill-rule: evenodd; opacity: 1;"  paint-order="stroke"  transform=" translate(-2976.38, -4613.1849999999995)" d="M 2794.35 4592.2 C 2863.04 4577.44 2924.38 4541.78 2976.38 4479.5199999999995 C 3028.38 4541.78 3089.7200000000003 4577.44 3158.4100000000003 4592.2 L 3081.5600000000004 4746.849999999999 C 3033.1700000000005 4735.74 2999.0900000000006 4706.03 2976.3800000000006 4661.539999999999 C 2953.6600000000008 4706.029999999999 2919.5900000000006 4735.739999999999 2871.2000000000007 4746.849999999999 L 2794.350000000001 4592.2" stroke-linecap="round" />
</g>
		<g transform="matrix(0.5690268481908329 0 0 -0.5690268481908329 0 -64.06957797204669)"  >
<path style="stroke: none; stroke-width: 1; stroke-dasharray: none; stroke-linecap: butt; stroke-dashoffset: 0; stroke-linejoin: miter; stroke-miterlimit: 4; fill: rgb(0,0,0); fill-rule: evenodd; opacity: 1;"  paint-order="stroke"  transform=" translate(-2976.385, -4789.759999999999)" d="M 2976.38 4851.4 L 2692.27 4672.259999999999 L 2976.38 4907.259999999999 L 3260.5 4672.259999999999 L 2976.38 4851.4" stroke-linecap="round" />
</g>
		<g transform="matrix(0.5690268481908329 0 0 -0.5690268481908329 -10.760297699288799 -67.08542026745857)"  >
<path style="stroke: none; stroke-width: 1; stroke-dasharray: none; stroke-linecap: butt; stroke-dashoffset: 0; stroke-linejoin: miter; stroke-miterlimit: 4; fill: rgb(98,161,248); fill-rule: evenodd; opacity: 1;"  paint-order="stroke"  transform=" translate(-2957.475, -4795.0599999999995)" d="M 2944.5 4811.67 L 2970.45 4811.67 C 2972.45 4811.67 2974.0899999999997 4810.04 2974.0899999999997 4808.03 L 2974.0899999999997 4782.09 C 2974.0899999999997 4780.08 2972.45 4778.45 2970.45 4778.45 L 2944.5 4778.45 C 2942.5 4778.45 2940.86 4780.08 2940.86 4782.09 L 2940.86 4808.03 C 2940.86 4810.04 2942.5 4811.67 2944.5 4811.67" stroke-linecap="round" />
</g>
		<g transform="matrix(0.5690268481908329 0 0 -0.5690268481908329 -10.760297699288799 -45.70992671516947)"  >
<path style="stroke: none; stroke-width: 1; stroke-dasharray: none; stroke-linecap: butt; stroke-dashoffset: 0; stroke-linejoin: miter; stroke-miterlimit: 4; fill: rgb(98,161,248); fill-rule: evenodd; opacity: 1;"  paint-order="stroke"  transform=" translate(-2957.475, -4757.494999999999)" d="M 2944.5 4774.11 L 2970.45 4774.11 C 2972.45 4774.11 2974.0899999999997 4772.48 2974.0899999999997 4770.469999999999 L 2974.0899999999997 4744.5199999999995 C 2974.0899999999997 4742.5199999999995 2972.45 4740.879999999999 2970.45 4740.879999999999 L 2944.5 4740.879999999999 C 2942.5 4740.879999999999 2940.86 4742.5199999999995 2940.86 4744.5199999999995 L 2940.86 4770.469999999999 C 2940.86 4772.48 2942.5 4774.11 2944.5 4774.11" stroke-linecap="round" />
</g>
		<g transform="matrix(0.5690268481908329 0 0 -0.5690268481908329 10.748917162324858 -67.08542026745857)"  >
<path style="stroke: none; stroke-width: 1; stroke-dasharray: none; stroke-linecap: butt; stroke-dashoffset: 0; stroke-linejoin: miter; stroke-miterlimit: 4; fill: rgb(98,161,248); fill-rule: evenodd; opacity: 1;"  paint-order="stroke"  transform=" translate(-2995.275, -4795.0599999999995)" d="M 2982.3 4811.67 L 3008.25 4811.67 C 3010.26 4811.67 3011.89 4810.04 3011.89 4808.03 L 3011.89 4782.09 C 3011.89 4780.08 3010.2599999999998 4778.45 3008.25 4778.45 L 2982.3 4778.45 C 2980.3 4778.45 2978.6600000000003 4780.08 2978.6600000000003 4782.09 L 2978.6600000000003 4808.03 C 2978.6600000000003 4810.04 2980.3 4811.67 2982.3 4811.67" stroke-linecap="round" />
</g>
		<g transform="matrix(0.5690268481908329 0 0 -0.5690268481908329 10.748917162324858 -45.70992671516947)"  >
<path style="stroke: none; stroke-width: 1; stroke-dasharray: none; stroke-linecap: butt; stroke-dashoffset: 0; stroke-linejoin: miter; stroke-miterlimit: 4; fill: rgb(98,161,248); fill-rule: evenodd; opacity: 1;"  paint-order="stroke"  transform=" translate(-2995.275, -4757.494999999999)" d="M 2982.3 4774.11 L 3008.25 4774.11 C 3010.26 4774.11 3011.89 4772.48 3011.89 4770.469999999999 L 3011.89 4744.5199999999995 C 3011.89 4742.5199999999995 3010.2599999999998 4740.879999999999 3008.25 4740.879999999999 L 2982.3 4740.879999999999 C 2980.3 4740.879999999999 2978.6600000000003 4742.5199999999995 2978.6600000000003 4744.5199999999995 L 2978.6600000000003 4770.469999999999 C 2978.6600000000003 4772.48 2980.3 4774.11 2982.3 4774.11" stroke-linecap="round" />
</g>
</g>
</g>
</svg>