<svg version="1.1" id="Layer_1" xmlns="http://www.w3.org/2000/svg" x="0" y="0" viewBox="0 0 51 70" xml:space="preserve"><style>.st0{fill:#57595c}</style><path class="st0" d="M25.5 31.7c2 0 3.6-1.6 3.6-3.6 0-.7-.2-1.5-.6-2.1-.6-1-1.7-1.5-3-1.5-1.2 0-2.2.6-3 1.5-.4.6-.6 1.3-.6 2.1 0 2 1.6 3.6 3.6 3.6zm7.9-8v-3.5h-3.5l.1 3.5z"/><path d="m12.8 41-.1-.1.1.1zm25.4-25.7.1.1c0-.1 0-.1-.1-.1zm-25.6.1.1-.1-.1.1zm25.8 25.5-.1.1c0-.1 0-.1.1-.1z"/><path class="st0" d="m38.4 15.4-.1-.1L25.5 2.5 12.8 15.3l-.1.1L-.1 28.1l12.7 12.7.1.1 12.7 12.7 12.7-12.7.1-.1 12.7-12.7-12.5-12.7zm-2.5 6.4v12.6c0 2.2-1.8 3.9-3.9 3.9H19.2c-2.2 0-3.9-1.8-3.9-3.9V21.8c0-2.2 1.8-3.9 3.9-3.9h12.6c2.2 0 4.1 1.7 4.1 3.9z"/><path class="st0" d="M31.2 28.1c0 3.1-2.6 5.7-5.7 5.7s-5.7-2.6-5.7-5.7c0-.7.1-1.5.4-2.1h-3.1v8.4c0 1.1.9 1.9 2 1.9h12.6c1.1 0 2-.9 2-1.9V26h-3.1c.3.6.6 1.4.6 2.1z"/></svg>